<svg width="50" height="50" viewBox="0 0 50 50" fill="none" xmlns="http://www.w3.org/2000/svg">
<path d="M25 0C11.1872 0 0 11.3574 0 25.3802C0 37.3078 8.0617 47.2071 18.9383 49.9978C18.8128 49.6803 18.7511 49.2354 18.7511 48.7925V44.4768H15.6255C13.9383 44.4768 12.3745 43.7165 11.6872 42.319C10.8745 40.7962 10.7489 38.4482 8.68723 36.9881C8.0617 36.4805 8.5617 35.9729 9.24894 36.0355C10.5617 36.4157 11.6234 37.3056 12.6234 38.6362C13.6234 39.9689 14.0617 40.2864 15.9362 40.2864C16.8106 40.2864 18.1851 40.2238 19.4362 40.0315C20.1234 38.2538 21.3106 36.6684 22.7489 35.9081C14.3745 34.8929 10.3745 30.7046 10.3745 24.9935C10.3745 22.5181 11.4362 20.1702 13.1872 18.1398C12.6255 16.172 11.8745 12.1112 13.4383 10.5257C17.1894 10.5257 19.4383 13.0011 20 13.634C21.8745 12.999 23.9383 12.6188 26.0617 12.6188C28.2489 12.6188 30.2489 12.999 32.1234 13.634C32.6851 12.999 34.9362 10.5257 38.6851 10.5257C40.1851 12.0486 39.4979 16.172 38.8723 18.1398C40.6234 20.1076 41.6234 22.5181 41.6234 24.9935C41.6234 30.7046 37.6851 34.8929 29.3745 35.7806C31.6872 36.9859 33.3128 40.4117 33.3128 42.9497V48.7299C33.3128 48.92 33.2511 49.1101 33.2511 49.3002C43 45.8744 50 36.4848 50 25.3802C50 11.3574 38.8128 0 25 0Z" fill="black"/>
</svg>
