<svg width="50" height="50" viewBox="0 0 50 50" fill="none" xmlns="http://www.w3.org/2000/svg">
<path d="M39.22 49.7052C39.1705 49.9012 38.9746 49.9992 38.6328 49.9992H32.0977C31.7049 49.9992 31.364 49.8279 31.07 49.4845L20.2766 35.7555L17.2668 38.6187V49.2655C17.2668 49.7554 17.0214 50 16.5323 50H11.4662C10.9763 50 10.7317 49.7554 10.7317 49.2655V0.733719C10.7317 0.245396 10.9763 0 11.4662 0H16.5323C17.0214 0 17.2668 0.245396 17.2668 0.733719V30.6161L30.1889 17.5475C30.5314 17.2058 30.874 17.0337 31.2166 17.0337H37.9724C38.2655 17.0337 38.4607 17.1564 38.5595 17.4001C38.6575 17.6941 38.6328 17.914 38.4862 18.0614L24.8288 31.2757L39.0726 48.9706C39.2677 49.1666 39.3171 49.4112 39.22 49.7052Z" fill="#20BEFF"/>
</svg>
