<svg width="50" height="50" viewBox="0 0 50 50" fill="none" xmlns="http://www.w3.org/2000/svg">
<g clip-path="url(#clip0)">
<path d="M0 0H50V50H0V0Z" fill="#12100E"/>
<path d="M11.9318 16.722C11.9524 16.5187 11.9248 16.3134 11.8512 16.1227C11.7777 15.932 11.6603 15.7614 11.5085 15.6246L8.3718 11.8461V11.282H18.1103L25.6372 27.7899L32.2551 11.282H41.5385V11.8464L38.8569 14.4174C38.7435 14.5038 38.6558 14.6196 38.6033 14.7522C38.5508 14.8848 38.5355 15.0293 38.559 15.1699V34.0607C38.5355 34.2014 38.5508 34.3458 38.6033 34.4784C38.6558 34.611 38.7435 34.7268 38.8569 34.8133L41.4756 37.3843V37.9487H28.3033V37.3843L31.0162 34.7505C31.2828 34.4838 31.2828 34.4056 31.2828 33.9982V18.7287L23.74 37.8858H22.7205L13.939 18.7287V31.5682C13.9029 31.8346 13.9279 32.1057 14.0121 32.361C14.0963 32.6163 14.2376 32.8491 14.4251 33.0417L17.9533 37.3215V37.8858H7.94872V37.3217L11.4769 33.0417C11.663 32.849 11.8011 32.6152 11.8801 32.3592C11.9591 32.1032 11.9768 31.8322 11.9318 31.5682V16.722Z" fill="white"/>
</g>
<defs>
<clipPath id="clip0">
<rect width="50" height="50" fill="white"/>
</clipPath>
</defs>
</svg>
