<svg width="52" height="52" viewBox="0 0 52 52" fill="none" xmlns="http://www.w3.org/2000/svg">
<path d="M34.4085 1.0111V1H36.7529L37.6096 1.21088C38.1807 1.34778 38.6991 1.52719 39.165 1.74917C39.6309 1.97114 40.0818 2.23013 40.5176 2.52608C40.9534 2.82203 41.3487 3.12358 41.7034 3.43063C42.055 3.73402 42.3706 4.05588 42.6502 4.39623C42.9266 4.74029 43.358 4.82908 43.9441 4.6626C44.5302 4.49612 45.1614 4.26487 45.8377 3.96892C46.514 3.67297 47.1828 3.34001 47.844 2.97003C48.5053 2.60006 48.9081 2.36515 49.0523 2.26526C49.1936 2.16171 49.2688 2.10622 49.2778 2.09878L49.2867 2.08213L49.3318 2.05438L49.3769 2.02664L49.422 1.99889L49.4671 1.97114L49.4761 1.9545L49.4896 1.9434L49.5032 1.9323L49.5122 1.91565L49.5573 1.899L49.6023 1.8879L49.5934 1.97114L49.5798 2.05438L49.5573 2.13762L49.5347 2.22087L49.5122 2.27636L49.4896 2.33185L49.4671 2.41509C49.4521 2.47059 49.4371 2.54456 49.422 2.63707C49.407 2.72958 49.2642 3.0995 48.9937 3.74695C48.7232 4.3944 48.385 5.05105 47.9793 5.71698C47.5735 6.38291 47.2098 6.88602 46.8882 7.22641C46.5636 7.57048 46.3487 7.81093 46.2435 7.94784C46.1383 8.0884 46.0105 8.21787 45.8602 8.33629L45.6348 8.51942L45.5897 8.54717L45.5446 8.57492L45.5357 8.59157L45.5221 8.60266L45.5086 8.61376L45.4995 8.63041L45.4545 8.65816L45.4094 8.6859L45.4004 8.70255L45.3868 8.71365L45.3733 8.72475L45.3643 8.7414L45.3553 8.75805L45.3417 8.76915L45.3282 8.78024L45.3192 8.79689H45.5446L46.807 8.46393C47.6486 8.24195 48.4527 7.97375 49.2191 7.65927L50.4364 7.15982L50.5717 7.10433L50.6393 7.07658L50.6844 7.04883L50.7295 7.02109L50.7746 6.99334L50.8197 6.96559L50.9098 6.94895L51 6.93785V7.04883L50.9775 7.05993L50.9549 7.07658L50.9459 7.09323L50.9324 7.10433L50.9188 7.11543L50.9098 7.13208L50.9009 7.14872L50.8873 7.15982L50.8738 7.17092L50.8647 7.18757L50.8558 7.20422L50.8422 7.21532L50.8197 7.27081L50.7971 7.3263L50.7836 7.3374C50.7776 7.3485 50.5867 7.66293 50.211 8.2808C49.8353 8.90233 49.6324 9.21676 49.6023 9.2242C49.5723 9.23529 49.5302 9.29079 49.4761 9.39068C49.425 9.49423 49.1064 9.90677 48.5203 10.6282C47.9342 11.3496 47.3601 11.9915 46.7981 12.5538C46.233 13.1199 45.9474 13.8154 45.9414 14.6404C45.9324 15.4617 45.8978 16.3903 45.8377 17.4262C45.7776 18.4621 45.6649 19.5812 45.4995 20.7836C45.3343 21.986 45.0788 23.3456 44.7331 24.8624C44.3875 26.3792 43.9666 27.859 43.4707 29.3019C42.9748 30.7447 42.4563 32.0396 41.9152 33.1865C41.3742 34.3334 40.8783 35.3045 40.4274 36.0999C39.9766 36.8953 39.5182 37.6445 39.0523 38.3474C38.5864 39.0503 37.9973 39.8421 37.285 40.7225C36.5696 41.5993 36.1789 42.0803 36.1128 42.1654C36.0436 42.2468 35.7491 42.5502 35.229 43.0755C34.7121 43.6045 34.156 44.1335 33.5609 44.6626C32.9688 45.188 32.4247 45.6264 31.9288 45.9778C31.4328 46.3292 30.8347 46.7306 30.1344 47.182C29.4371 47.6371 28.6826 48.0588 27.8711 48.4473C27.0595 48.8357 26.2029 49.1964 25.3012 49.5294C24.3995 49.8624 23.5278 50.1214 22.6862 50.3063C21.8446 50.4913 20.8903 50.6486 19.8233 50.778L18.2227 50.9723V51H15.2922V50.9723L14.9089 50.9445C14.6535 50.926 14.4431 50.9075 14.2777 50.889C14.1124 50.8705 13.4887 50.7688 12.4067 50.5838C11.3246 50.3988 10.4755 50.2138 9.85933 50.0289C9.24319 49.8439 8.32642 49.4924 7.10911 48.9745C5.89179 48.4565 4.85032 47.933 3.98467 47.404C3.12205 46.8786 2.58102 46.5457 2.36159 46.4051C2.14518 46.2682 1.90171 46.0981 1.6312 45.8946L1.22543 45.5893L1.21646 45.5727L1.20289 45.5616L1.18936 45.5505L1.18034 45.5339L1.13526 45.5061L1.09017 45.4784L1.0812 45.4617L1.06763 45.4506L1.0541 45.4395L1.04509 45.4229L1.03611 45.4062L1.02254 45.3951H1V45.2841L1.04509 45.2952L1.09017 45.3119L1.29306 45.3396C1.42831 45.3581 1.79653 45.3858 2.39766 45.4229C2.99883 45.4599 3.63751 45.4599 4.3138 45.4229C4.99008 45.3858 5.68142 45.3026 6.38774 45.1731C7.09409 45.0437 7.92818 44.8217 8.88999 44.5072C9.85185 44.1927 10.7355 43.8191 11.5411 43.3862C12.3436 42.9497 12.9147 42.6241 13.2543 42.4095C13.5909 42.1987 14.1049 41.8065 14.7962 41.2331L15.8332 40.3729L15.8422 40.3563L15.8557 40.3452L15.8693 40.3341L15.8783 40.3174L15.8873 40.3008L15.9008 40.2897L15.9144 40.2786L15.9234 40.2619L15.9684 40.2453L16.0135 40.2342L16.0225 40.1787L16.0361 40.1232L16.0496 40.1121L16.0586 40.0954L15.6979 40.0677C15.4575 40.0492 15.2245 40.0307 14.9991 40.0122C14.7737 39.9937 14.4205 39.9105 13.9396 39.7625C13.4587 39.6145 12.9402 39.3925 12.3841 39.0966C11.8281 38.8006 11.2871 38.4491 10.761 38.0422C10.2351 37.6352 9.85482 37.2967 9.62038 37.0266C9.38895 36.7602 9.08837 36.3829 8.71867 35.8946C8.35198 35.4025 8.03336 34.8975 7.76285 34.3796C7.49234 33.8617 7.23386 33.2641 6.98742 32.5871L6.61316 31.5771L6.59062 31.4939L6.56808 31.4107L6.55455 31.3552L6.54554 31.2997L6.61316 31.3108L6.68079 31.3274L7.17674 31.4107C7.50739 31.4661 8.02588 31.4846 8.73219 31.4661C9.43855 31.4477 9.92696 31.4107 10.1975 31.3552C10.468 31.2997 10.6333 31.2627 10.6934 31.2442L10.7836 31.2164L10.8963 31.1887L11.009 31.1609L11.018 31.1443L11.0316 31.1332L11.0451 31.1221L11.0541 31.1054L10.9639 31.0777L10.8738 31.0499L10.7836 31.0222L10.6934 30.9944L10.6032 30.9667C10.5431 30.9482 10.438 30.9112 10.2876 30.8557C10.1374 30.8002 9.7316 30.5967 9.07033 30.2453C8.40911 29.8938 7.88309 29.5516 7.49234 29.2186C7.10061 28.8847 6.7271 28.5195 6.37421 28.1254C6.02254 27.7259 5.63634 27.2116 5.21551 26.5827C4.79472 25.9538 4.41903 25.2231 4.08837 24.3907C3.75775 23.5583 3.50978 22.7629 3.34445 22.0044C3.17979 21.2505 3.07115 20.4796 3.01988 19.7014L2.93868 18.5361L2.98377 18.5472L3.02885 18.5638L3.07394 18.5916L3.11903 18.6193L3.16411 18.6471L3.2092 18.6748L3.90803 19.0633C4.37394 19.3223 4.95252 19.5442 5.64382 19.7292C6.33517 19.9142 6.74842 20.0159 6.88368 20.0344L7.08656 20.0622H7.49234L7.48336 20.0455L7.46979 20.0344L7.45627 20.0233L7.44725 20.0067L7.43828 19.99L7.42471 19.9789L7.41118 19.9678L7.40216 19.9512L7.35708 19.9234L7.31199 19.8957L7.30302 19.879L7.28945 19.8679L7.27592 19.8568L7.26691 19.8402L7.22182 19.8124L7.17674 19.7847L7.16776 19.768C7.15875 19.7606 7.02949 19.6422 6.77998 19.4129C6.5335 19.1798 6.27502 18.8783 6.00451 18.5083C5.73399 18.1383 5.46348 17.7499 5.19297 17.343C4.92195 16.9351 4.68057 16.4987 4.4716 16.0388C4.26123 15.5764 4.03877 14.9881 3.80433 14.2741C3.5729 13.5638 3.39707 12.8479 3.27683 12.1265C3.15663 11.4051 3.089 10.693 3.07394 9.99001C3.05893 9.28707 3.07394 8.6859 3.11903 8.18646C3.16411 7.68701 3.25428 7.12281 3.38954 6.4939C3.5248 5.86498 3.7202 5.19906 3.97565 4.49612L4.35888 3.44173L4.38142 3.35849L4.40397 3.27525L4.41754 3.26415L4.42651 3.2475L4.43553 3.23085L4.44905 3.21976L4.46262 3.23085L4.4716 3.2475L4.48061 3.26415L4.49414 3.27525L4.50771 3.28635L4.51668 3.303L4.5257 3.31964L4.53922 3.33074L4.56177 3.38624L4.58431 3.44173L4.59788 3.45283L4.60685 3.46948L5.21551 4.30189C5.62128 4.85683 6.10221 5.47653 6.65825 6.16093C7.21434 6.84534 7.52241 7.2005 7.58251 7.22641C7.64265 7.25599 7.71776 7.34107 7.80793 7.48169C7.89811 7.61859 8.19869 7.946 8.70965 8.46393C9.22065 8.98185 9.8894 9.58307 10.716 10.2675C11.5426 10.9519 12.4593 11.6271 13.4662 12.293C14.4731 12.9589 15.5552 13.5601 16.7124 14.0966C17.8696 14.633 18.6811 14.9845 19.147 15.1509C19.6129 15.3174 20.4094 15.5301 21.5365 15.7891C22.6637 16.0481 23.5128 16.2146 24.0839 16.2886C24.655 16.3625 25.0457 16.4051 25.2561 16.4162L25.5717 16.4273L25.5627 16.3441L25.5491 16.2608L25.459 15.5671C25.3989 15.1047 25.3688 14.4573 25.3688 13.6249C25.3688 12.7925 25.4214 12.0248 25.5266 11.3219C25.6318 10.6189 25.7896 9.90677 26 9.18535C26.2104 8.46393 26.4163 7.88491 26.6177 7.44839C26.8221 7.01554 27.0896 6.52164 27.4202 5.9667C27.7509 5.41176 28.1792 4.83835 28.7051 4.24639C29.2312 3.65444 29.8323 3.12725 30.5086 2.66482C31.1849 2.20239 31.8086 1.85089 32.3796 1.61043C32.9507 1.36998 33.4316 1.21271 33.8224 1.13873C34.2131 1.06476 34.4085 1.0222 34.4085 1.0111Z" fill="#5DA8DC" stroke="#5DA8DC" stroke-width="1.12646"/>
</svg>
